<?xml version="1.0" encoding="UTF-8" standalone="no"?>
<svg
   xmlns:dc="http://purl.org/dc/elements/1.1/"
   xmlns:cc="http://creativecommons.org/ns#"
   xmlns:rdf="http://www.w3.org/1999/02/22-rdf-syntax-ns#"
   xmlns:svg="http://www.w3.org/2000/svg"
   xmlns="http://www.w3.org/2000/svg"
   xmlns:sodipodi="http://sodipodi.sourceforge.net/DTD/sodipodi-0.dtd"
   xmlns:inkscape="http://www.inkscape.org/namespaces/inkscape"
   width="200"
   height="200"
   fill="currentColor"
   class="bi bi-house"
   viewBox="0 0 200 200"
   version="1.1"
   id="svg14"
   sodipodi:docname="home.svg"
   inkscape:version="1.0.2 (e86c8708, 2021-01-15)">
  <metadata
     id="metadata20">
    <rdf:RDF>
      <cc:Work
         rdf:about="">
        <dc:format>image/svg+xml</dc:format>
        <dc:type
           rdf:resource="http://purl.org/dc/dcmitype/StillImage" />
        <dc:title></dc:title>
      </cc:Work>
    </rdf:RDF>
  </metadata>
  <defs
     id="defs18" />
  <sodipodi:namedview
     pagecolor="#ffffff"
     bordercolor="#666666"
     borderopacity="1"
     objecttolerance="10"
     gridtolerance="10"
     guidetolerance="10"
     inkscape:pageopacity="0"
     inkscape:pageshadow="2"
     inkscape:window-width="1440"
     inkscape:window-height="792"
     id="namedview16"
     showgrid="false"
     inkscape:zoom="3.63"
     inkscape:cx="61.497967"
     inkscape:cy="113.45152"
     inkscape:window-x="0"
     inkscape:window-y="25"
     inkscape:window-maximized="1"
     inkscape:current-layer="svg14"
     inkscape:document-rotation="0" />
  <g
     id="g18"
     transform="translate(0,0.09621966)">
    <path
       fill-rule="evenodd"
       d="M 90.000442,109.17612 V 97.963416 h 1.666593 v 11.212704 a 0.83329649,0.86251606 0 0 0 0.833297,0.86252 h 14.999338 a 0.83329649,0.86251606 0 0 0 0.83329,-0.86252 V 97.963416 h 1.6666 v 11.212704 a 2.4998895,2.5875482 0 0 1 -2.49989,2.58755 H 92.500332 a 2.4998895,2.5875482 0 0 1 -2.49989,-2.58755 z M 108.33296,90.200771 v 6.037613 l -3.33318,-3.450064 v -2.587549 a 0.83329649,0.86251606 0 0 1 0.8333,-0.862516 h 1.66659 a 0.83329649,0.86251606 0 0 1 0.83329,0.862516 z"
       id="path10"
       style="stroke-width:1.69557" />
    <path
       fill-rule="evenodd"
       d="m 98.546255,88.548958 a 1.666593,1.7250321 0 0 1 2.356565,0 l 11.07784,11.464562 a 0.83434926,0.86360575 0 0 1 -1.17994,1.22132 L 99.724538,89.768556 88.64836,101.23484 a 0.83434926,0.86360574 0 1 1 -1.179948,-1.22132 z"
       id="path12"
       style="stroke-width:1.69557" />
  </g>
</svg>
